<mxfile
  host="Electron" 
  agent="Mozilla/5.0 (Macintosh; Intel Mac OS X 10_15_7) AppleWebKit/537.36 (KHTML, like Gecko) draw.io/25.0.2 Chrome/128.0.6613.186 Electron/32.2.5 Safari/537.36" 
  version="25.0.2"
  >
  <diagram
    name="-"
    >
    <mxGraphModel
      grid="1" 
      gridSize="10" 
      guides="1" 
      tooltips="1" 
      connect="1" 
      arrows="1" 
      fold="1" 
      page="1" 
      pageScale="1" 
      pageWidth="1" 
      pageHeight="1" 
      math="0" 
      shadow="0"
      >
      <root>
        <mxCell
          id="page"
          />
        <mxCell
          id="root" 
          parent="page"
          />
        <mxCell
          style="verticalAlign=top;aspect=fixed;align=center;spacingLeft=5;spacingRight=5;spacingBottom=5;strokeColor=none;" 
          id="shape_" 
          parent="root" 
          value=" " 
          vertex="1"
          >
          <mxGeometry
            as="geometry" 
            width="99" 
            height="102" 
            x="0" 
            y="0"
            />
          </mxCell>
        <mxCell
          style="rounded=1;whiteSpace=wrap;verticalAlign=top;align=center;sketch=0;html=1;labelPosition=center;verticalLabelPosition=bottom;spacingTop=-6;fontSize=11;fontStyle=1;fontColor=#999999;shape=image;aspect=fixed;imageAspect=0;image=data:image/svg+xml,PHN2ZyB4bWxucz0iaHR0cDovL3d3dy53My5vcmcvMjAwMC9zdmciIGlkPSJzdmc4NzUzMSIgdmVyc2lvbj0iMS4xIiB2aWV3Qm94PSIwIDAgMjg0LjM1MTYyIDMwMi42MTMwNyIgaGVpZ2h0PSIzMDIuNjEzMDdtbSIgd2lkdGg9IjI4NC4zNTE2Mm1tIj4mI3hhOyAgJiN4YTsgIDxkZWZzIGlkPSJkZWZzODc1MjgiLz4mI3hhOyAgPGcgdHJhbnNmb3JtPSJ0cmFuc2xhdGUoMzUuNzQwNDUzLDMuMDI1MTM4NCkiIGlkPSJsYXllcjEiPiYjeGE7ICAgIDxwYXRoIGQ9Ik0gNDAxLjQ3ODUyLC0xMS40MzM1OTQgLTEzMC4xMjEwOSwyNTYuODMwMDggLTU0Ljg4NjcxOSwzMDMuNTM3MTEgNDAxLjUzMTI1LDczLjIwNzAzMSA4MzUuMjEyODksMjkxLjM4NjcyIDkyMy43MTQ4NCwyNTEuMjk0OTIgWiBNIC0xMzUuMDgyMDMsMzQyLjcxNjggdiA1MjcuMzA0NjggbCAyMS40Mjk2OSwxMC4yOTEwMiA1MjQuNzA1MDcsMjUxLjk4ODMgNTI4LjU4MDA4LC0yNjIuNjMyODMgViAzNjguNTY2NDEgbCAtNzUuNTg5ODQsMzQuMjQwMjMgViA4MjIuODIyMjcgTCA0MTAuNDg0MzgsMTA0OC4xNjk5IC01OS40OTAyMzQsODIyLjQ3NDYxIFYgMzg5LjY0NjQ4IFogbSAxNTIuODc4OTA1LDk0LjkxMjExIHYgMzEzLjYyOTQxIGwgNzUuNTkxNzk3LDM3LjEyNjE0IFYgNDg0LjU1ODU5IFogbSA3NTAuNDI5Njg1LDguNTgyMDMgLTc1LjU5MTc5LDM0LjI0MjE4IHYgMzIyLjU1MzYzIGwgNzUuNTkxNzksLTQ3Ljg3MTU1IHoiIHRyYW5zZm9ybT0ic2NhbGUoMC4yNjQ1ODMzMykiIHN0eWxlPSJjb2xvcjojMDAwMDAwO29wYWNpdHk6MTtmaWxsOiM1OTg2ZjI7ZmlsbC1vcGFjaXR5OjE7c3Ryb2tlLXdpZHRoOjMuNzc5NTM7LWlua3NjYXBlLXN0cm9rZTpub25lIiBpZD0icGF0aDExMzIiLz4mI3hhOyAgICA8cGF0aCBpZD0icGF0aDExMzQiIGQ9Im0gMTU2LjQ1ODQsMTY4Ljc2NTA2IC00OS42MTUyNCwyNi43NzIwNSAtNTUuMzkyMzE0LC0yNS4yNjA4OCB2IDIxLjkxNTk2IGwgNTUuMzkyMzE0LDI1Ljc1NTA4IDQ5LjYxNTI0LC0yNy4wMTY3MSB6IiBzdHlsZT0iY29sb3I6IzAwMDAwMDtvcGFjaXR5OjE7ZmlsbDojNzY5ZWY1O2ZpbGwtb3BhY2l0eToxOy1pbmtzY2FwZS1zdHJva2U6bm9uZSIvPiYjeGE7ICAgIDxwYXRoIGQ9Ik0gNTEuNDUwODQ2LDEyMi44MzQyMiAxMDYuODQzMTYsOTMuNTg1NjE0IDE1Ni40NTg0LDEyMi44MzQyMiB2IDIwLjQ3ODYyIEwgMTA2Ljg0MzE2LDE3MC42NDY3MSA1MS40NTA4NDYsMTQzLjMxMjg0IFogTSAxMDUuNDkwMiw0NC4xNTgwMjYgMTAuMjA2MDk1LDk1LjY2MzQxIDI5Ljc4MjE2MSwxMDcuODE2NjcgMTA1LjMzNTY5LDY2Ljk3Njc4OCAxNjcuMTU2MiwxMDEuNDc5MDggMTg5LjgwNzAyLDkxLjIxODIwNCBaIiBzdHlsZT0ib3BhY2l0eToxO2ZpbGw6I2I1Y2JmOTtmaWxsLW9wYWNpdHk6MTtzdHJva2U6bm9uZTtzdHJva2Utd2lkdGg6MjA7c3Ryb2tlLWxpbmVjYXA6YnV0dDtzdHJva2UtbGluZWpvaW46bWl0ZXI7c3Ryb2tlLW1pdGVybGltaXQ6NDtzdHJva2UtZGFzaGFycmF5Om5vbmU7c3Ryb2tlLW9wYWNpdHk6MSIgaWQ9InBhdGgxMTM2Ii8+JiN4YTsgIDwvZz4mI3hhOzwvc3ZnPg;strokeColor=none;" 
          id="alloydb_" 
          parent="shape_" 
          value=" " 
          vertex="1"
          >
          <mxGeometry
            width="39" 
            height="42" 
            as="geometry" 
            x="30" 
            y="30"
            />
          </mxCell>
        </root>
      </mxGraphModel>
    </diagram>
  </mxfile>